HIERARCHY
ROOT pelvis
{
  OFFSET 0 100 0
  CHANNELS 6 Xposition Yposition Zposition Zrotation Xrotation Yrotation
  JOINT pelvis_right_femur
  {
    OFFSET -10.78128 -3.44521 -0.5502486
    CHANNELS 3 Zrotation Xrotation Yrotation
    JOINT right_femur_tibia
    {
      OFFSET -0.8047443 -44.0398 -0.1307829
      CHANNELS 3 Zrotation Xrotation Yrotation
      JOINT right_tibia_foot
      {
        OFFSET 3.006224 -47.83518 -5
        CHANNELS 3 Zrotation Xrotation Yrotation
        End Site
        {
          OFFSET 0 -5 15
        }
      }
    }
  }
  JOINT pelvis_left_femur
  {
    OFFSET 10.78128 -3.44521 -0.5502486
    CHANNELS 3 Zrotation Xrotation Yrotation
    JOINT left_femur_tibia
    {
      OFFSET 0.8047443 -44.0398 -0.1307829
      CHANNELS 3 Zrotation Xrotation Yrotation
      JOINT left_tibia_foot
      {
        OFFSET -4.370144 -48.10324 -4.275266
        CHANNELS 3 Zrotation Xrotation Yrotation
        End Site
        {
          OFFSET 0 -5 15
        }
      }
    }
  }
  JOINT pelvis_spine1
  {
    OFFSET 0 6.468898 -3.129235
    CHANNELS 3 Zrotation Xrotation Yrotation
    JOINT spine1
    {
      OFFSET 0 23.15396 4.99043
      CHANNELS 3 Zrotation Xrotation Yrotation
      JOINT spine2
      {
        OFFSET 0 20.79997 -5.064912
        CHANNELS 3 Zrotation Xrotation Yrotation
        JOINT neck
        {
          OFFSET 0 14.38658 9.616178
          CHANNELS 3 Zrotation Xrotation Yrotation
          End Site
          {
            OFFSET 0 20 0
          }
        }
      }
      JOINT right_manubrium
      {
        OFFSET -5.722621 16.35077 3.967754
        CHANNELS 3 Zrotation Xrotation Yrotation
        JOINT right_clavicle
        {
          OFFSET -13.16364 1.694482 -4.693211
          CHANNELS 3 Zrotation Xrotation Yrotation
          JOINT right_humerus
          {
            OFFSET -28.5034 -0.3100689 -2.792744
            CHANNELS 3 Zrotation Xrotation Yrotation
            JOINT right_radius
            {
              OFFSET -25.15693 0.02248979 -1.271978
              CHANNELS 3 Zrotation Xrotation Yrotation
              End Site
              {
                OFFSET -15 0 0
              }
            }
          }
        }
      }
      JOINT left_manubrium
      {
        OFFSET 5.722621 16.35077 3.967754
        CHANNELS 3 Zrotation Xrotation Yrotation
        JOINT left_clavicle
        {
          OFFSET 13.16364 1.694482 -4.693211
          CHANNELS 3 Zrotation Xrotation Yrotation
          JOINT left_humerus
          {
            OFFSET 29.39168 -1.063119 -2.237045
            CHANNELS 3 Zrotation Xrotation Yrotation
            JOINT left_radius
            {
              OFFSET 24.59957 -0.9528479 0.9047498
              CHANNELS 3 Zrotation Xrotation Yrotation
              End Site
              {
                OFFSET 15 -0 -0
              }
            }
          }
        }
      }
    }
  }
}
MOTION
Frames: 15
Frame Time: 0.0416666666667
2052.192 97.64397 2009.16 6.520203 -0.08045648 82.22094 4.534932 12.21459 3.302655 -0 8.667931 -0 -4.707414 -15.24533 -2.151291 0.9773865 -23.04175 -3.678065 -0 36.22667 -0 -5.42352 -7.539777 19.61941 -1.359995 1.771514 7.202144 -0.05209058 9.547697 -3.638441 1.572258 23.3119 4.973222 2.487904 -18.88836 6.20998 1.298978 -20.07995 11.13828 82.56369 28.41097 -8.710851 -0 0 17.34357 -20.18075 10.24715 12.03382 5.42086 -17.66206 -1.622862 -92.69112 23.75186 21.4875 0 0 -12.67544 2.19211 8.451649 10.40008
2057.909 96.57101 2009.559 5.950986 -0.4193097 81.69232 4.458078 15.24162 2.687802 -0 8.566093 -0 -4.138532 -17.00646 -1.416561 1.83257 -25.57109 -3.250297 -0 25.85604 -0 -4.97305 -7.652264 20.48975 -1.113894 1.525092 7.166619 -0.2225165 9.088277 -3.301005 1.483568 23.12624 5.032635 2.248142 -18.96707 6.344866 0.5028332 -21.19022 10.82681 81.42108 27.5012 -6.418458 -0 0 19.68945 -21.26864 9.67467 13.31671 5.556224 -16.81497 -1.343965 -93.539 23.52132 23.20988 0 0 -10.97543 1.645935 8.159692 11.03384
2064.003 95.33675 2009.877 5.329643 -0.6765565 81.09979 4.134036 17.58583 2.449248 -0 10.14937 -0 -3.453944 -17.62048 -0.7345823 1.980649 -26.62851 -3.323548 -0 18.0558 -0 -4.724119 -7.403894 20.86036 -0.9127116 1.021066 7.238296 -0.3779532 8.769485 -3.076662 1.477868 22.79066 5.034885 2.121428 -19.04932 6.4037 -0.2073845 -21.98933 10.4301 80.82962 26.20633 -5.038134 -0 0 21.77941 -21.98239 8.719161 14.30571 5.56526 -16.03343 -1.168699 -94.24453 23.45543 24.78232 0 0 -9.574628 0.9040118 7.309694 12.18208
2070.619 94.27266 2010.13 4.863132 -0.6303334 80.49521 3.316208 19.42303 2.714102 -0 14.01985 -0 -2.68878 -16.27295 -0.198619 1.270745 -26.58765 -3.855531 -0 14.36746 -0 -4.659558 -7.028714 20.60519 -0.9713395 0.296687 7.59254 -0.5972389 8.711157 -2.912863 1.592262 22.35643 4.94872 2.118156 -19.18618 6.385048 -0.7199298 -22.4676 10.06012 80.88519 24.71717 -4.698833 -0 0 23.34215 -22.43825 7.686949 14.89819 5.373462 -15.42859 -1.137136 -94.80676 23.60741 26.33073 0 0 -8.645146 0.01681604 6.096173 13.84171
2077.788 93.68233 2010.319 4.782834 -0.1719654 80.04345 1.971832 20.73414 3.428096 -0 20.4253 -0 -2.003605 -12.53825 0.000909904 -0.2302627 -25.61481 -4.734822 -0 14.87428 -0 -4.545292 -6.907637 19.9338 -1.474776 -0.5211544 8.157917 -0.8563544 8.95664 -2.809802 1.794108 21.95851 4.796419 2.193602 -19.4657 6.336556 -0.9248235 -22.63638 9.842158 81.5913 23.37543 -5.281519 -0 0 23.92989 -22.68939 6.894479 15.04402 4.959759 -15.08829 -1.254912 -95.1842 23.82557 27.73438 0 0 -8.009982 -0.7202185 4.954035 15.44831
2085.35 93.74584 2010.448 5.235007 0.5468448 79.95194 0.4904954 20.9833 4.317471 -0 28.97693 -0 -1.560011 -6.920212 -0.3341398 -2.156573 -23.51506 -5.730813 -0 17.80599 -0 -4.122192 -7.325451 19.25554 -2.353831 -1.204207 8.565513 -1.044794 9.491 -2.856211 1.954013 21.71161 4.644945 2.282434 -19.85131 6.249333 -0.8196447 -22.54713 9.867899 82.87885 22.31589 -6.522091 -0 0 23.36965 -22.64789 6.343413 14.84573 4.426669 -15.0458 -1.550294 -95.2337 23.87792 28.5615 0 0 -7.526138 -1.084721 4.049871 16.39386
2092.983 94.48766 2010.527 6.161677 1.156903 80.37209 -0.5023069 19.28543 4.992033 -0 38.81519 -0 -1.394814 -0.8688401 -1.249357 -3.964548 -19.89015 -6.55259 -0 20.64606 -0 -3.411933 -8.267145 18.74201 -3.22203 -1.539398 8.394924 -1.065382 10.22915 -3.184565 1.935474 21.64696 4.562969 2.286753 -20.19139 6.111644 -0.59106 -22.27983 10.10955 84.67244 21.29653 -8.211395 -0 0 21.98567 -22.16211 5.79592 14.45547 3.910777 -15.30347 -2.083325 -94.75952 23.77088 28.36275 0 0 -7.423412 -1.108564 3.232266 16.58578
2100.319 95.7922 2010.567 7.21732 1.374547 81.3189 -0.6620221 14.99985 5.173403 -0 48.33539 -0 -1.547851 4.086293 -2.516334 -5.235972 -14.67171 -7.054213 -0 21.70339 -0 -2.632283 -9.580037 18.26183 -3.70349 -1.481447 7.519086 -0.8858868 11.02086 -3.895068 1.695463 21.72402 4.625796 2.183132 -20.39664 5.979717 -0.3668393 -21.87597 10.45562 86.73702 20.39003 -10.24373 -0 0 20.17566 -21.27018 5.262238 13.94325 3.514004 -15.96476 -2.850472 -93.64234 23.76547 26.95424 0 0 -8.214516 -0.8895395 2.590404 16.26754
2107.093 97.40645 2010.562 7.864575 1.223001 82.63241 -0.1679536 8.460907 4.898627 -0 54.95523 -0 -2.02223 7.059255 -3.716089 -5.854062 -8.701442 -7.33443 -0 20.6479 -0 -1.959119 -11.17109 17.7406 -3.740066 -1.174584 6.250082 -0.5474657 11.68304 -4.942293 1.309599 21.82085 4.89946 2.125475 -20.47194 5.910786 -0.01396582 -21.35038 10.80931 88.54536 20.32825 -12.47062 -0 0 18.24272 -20.33556 5.159298 13.36936 3.35675 -17.12926 -3.689527 -92.03653 24.06366 24.60918 0 0 -10.22931 -0.5339559 2.512624 15.74385
2113.26 98.98661 2010.501 7.916589 0.8956395 84.08011 0.5531546 0.97381 4.446757 -0 57.10713 -0 -2.481282 7.803272 -4.700757 -5.965242 -3.185476 -7.577049 -0 18.30168 -0 -1.67767 -12.95833 17.19276 -3.45011 -0.7562625 5.071058 -0.1947689 12.01012 -6.037391 0.9551288 21.8433 5.328505 2.216425 -20.34776 5.959479 0.4928575 -20.70542 11.04486 89.73525 21.23335 -14.60854 -0 0 16.65116 -19.68495 5.733406 12.74689 3.550866 -18.52438 -4.376162 -90.35994 24.63455 21.89827 0 0 -13.03836 -0.2467857 3.049787 15.35542
2118.906 100.1783 2010.41 7.625551 0.4837693 85.47002 1.208516 -6.840955 3.896031 -0 54.6796 -0 -2.84968 6.646303 -5.556904 -5.782624 1.836818 -7.883166 -0 15.45168 -0 -2.02225 -15.02854 16.47804 -2.905563 -0.2382025 4.122648 0.09842001 11.9102 -6.965075 0.7806361 21.86537 5.758881 2.344247 -20.06167 6.196139 0.806066 -19.9255 11.03447 90.60432 22.18035 -16.61787 -0 0 15.44918 -19.17469 6.605155 11.96697 4.100762 -19.92213 -4.876924 -88.75349 25.41333 18.89572 0 0 -16.13463 -0.02749259 4.0265 15.11272
2124.173 100.661 2010.347 7.011286 0.1127393 86.63269 1.560615 -14.72739 3.095373 -0 46.86218 -0 -3.384783 4.296819 -6.152476 -5.492013 6.584802 -8.224068 -0 12.43538 -0 -2.792614 -17.52753 15.46424 -2.324297 0.2986391 3.42742 0.435938 11.44703 -7.73286 0.8111341 21.92049 6.080515 2.434022 -19.89173 6.585237 0.6932345 -19.06495 10.8073 91.465 22.65986 -18.67301 -0 0 14.20903 -18.62063 7.341477 11.05313 4.92731 -21.41539 -5.224481 -87.11431 26.24346 15.46583 0 0 -19.53692 0.3266126 5.33188 14.68312
2129.326 100.231 2010.359 6.023202 0.04077873 87.4782 1.353135 -21.49979 1.953823 -0 34.07593 -0 -3.916896 1.606848 -6.407381 -5.324209 10.68488 -8.390557 -0 9.825592 -0 -3.450512 -20.13088 14.22214 -2.088702 0.6517579 3.057601 0.9336531 10.76094 -8.35082 0.9821071 21.94284 6.227988 2.430405 -19.9841 7.014419 0.2111907 -18.1921 10.50759 92.29283 22.7427 -20.69782 -0 0 12.63867 -18.20278 7.866896 10.32063 5.81667 -22.87388 -5.375303 -85.33583 26.57617 11.7303 0 0 -23.09372 0.9811389 6.532898 13.64684
2134.674 98.96158 2010.458 4.991073 0.4047555 88.08766 0.6526008 -25.65342 0.8099265 -0 20.78841 -0 -4.035534 -0.5626376 -6.578783 -5.443231 13.79234 -8.207505 -0 8.364566 -0 -3.51315 -22.00712 13.1347 -2.376477 0.6244063 2.931536 1.526924 10.07129 -8.787363 1.18752 21.90066 6.143696 2.251678 -20.13169 7.32804 -0.3944963 -17.3597 10.25272 92.97875 22.58673 -22.36781 -0 0 10.87596 -18.06437 8.230798 10.02968 6.461117 -23.87016 -5.308057 -83.50003 25.96539 8.165567 0 0 -26.1757 1.869536 6.988776 12.01719
2140.397 97.15142 2010.636 4.291079 0.957452 88.61473 0.01576614 -27.39269 0.2124306 -0 11.50321 -0 -3.752585 -1.936269 -6.969399 -5.692236 16.18662 -7.892702 -0 8.253048 -0 -3.238624 -22.81593 12.53933 -2.871379 0.2736089 2.839823 1.983964 9.487989 -9.024159 1.400923 21.83771 5.864698 1.973928 -20.06058 7.461719 -0.84257 -16.55627 10.01832 93.47471 22.39915 -23.52667 -0 0 9.27467 -17.94791 8.521013 9.888719 6.844764 -24.25601 -5.06888 -81.91442 24.88886 5.236505 0 0 -28.39068 2.707467 6.843445 10.41064
